<?xml version="1.0" encoding="UTF-8" standalone="no"?>
<svg
   xmlns:dc="http://purl.org/dc/elements/1.1/"
   xmlns:cc="http://creativecommons.org/ns#"
   xmlns:rdf="http://www.w3.org/1999/02/22-rdf-syntax-ns#"
   xmlns:svg="http://www.w3.org/2000/svg"
   xmlns="http://www.w3.org/2000/svg"
   version="1.1"
   id="svg23"
   viewBox="0 0 73.4163 73.4163"
   height="20.719711mm"
   width="20.719711mm">
  <defs
     id="defs25" />
  <metadata
     id="metadata28">
    <rdf:RDF>
      <cc:Work
         rdf:about="">
        <dc:format>image/svg+xml</dc:format>
        <dc:type
           rdf:resource="http://purl.org/dc/dcmitype/StillImage" />
        <dc:title></dc:title>
      </cc:Work>
    </rdf:RDF>
  </metadata>
  <g
     transform="translate(556.70815,-547.08263)"
     id="layer1">
    <path
       id="path2989"
       d="m -504.6561,548.08263 c -5.40612,0 -9.83662,2.52557 -13.43475,5.93957 -1.75911,-0.31542 -3.51021,-0.70709 -5.3739,-0.70709 -17.83651,0 -32.2434,14.9875 -32.2434,33.0919 0,18.10442 14.40689,33.09192 32.2434,33.09192 17.8365,0 32.2434,-15.01656 32.2434,-33.09192 0,-1.47939 -0.38285,-2.92684 -0.56568,-4.38396 4.22291,-3.56877 7.49518,-8.3507 7.49518,-14.28326 0,-10.96045 -9.3886,-19.65716 -20.36425,-19.65716 z m 0,12.72765 c 4.30115,0 7.63659,3.23529 7.63659,6.92951 0,2.62866 -1.56715,4.88077 -4.10114,6.08099 l -4.80822,2.2627 1.27277,5.09106 c 0.40004,1.59828 0.56567,3.40286 0.56567,5.23247 0,11.43762 -8.67906,20.36426 -19.37432,20.36426 -10.69526,0 -19.37432,-8.9557 -19.37432,-20.36426 0,-11.40855 8.67906,-20.36425 19.37432,-20.36425 1.87564,0 3.60632,0.31135 5.3739,0.84852 l 4.6668,1.41418 2.54553,-4.10113 c 1.34355,-2.06707 3.44523,-3.39405 6.22242,-3.39405 z"
       style="color:#000000;font-style:normal;font-variant:normal;font-weight:normal;font-stretch:normal;font-size:medium;line-height:normal;font-family:Sans;-inkscape-font-specification:Sans;text-indent:0;text-align:start;text-decoration:none;text-decoration-line:none;letter-spacing:normal;word-spacing:normal;text-transform:none;direction:ltr;block-progression:tb;writing-mode:lr-tb;baseline-shift:baseline;text-anchor:start;display:inline;overflow:visible;visibility:visible;fill:#000000;fill-opacity:1;stroke:#ffffff;stroke-width:2;stroke-miterlimit:4;stroke-dasharray:none;stroke-opacity:1" />
  </g>
</svg>
