<?xml version="1.0" encoding="UTF-8" standalone="no"?>
<!-- Created with Inkscape (http://www.inkscape.org/) -->

<svg
   xmlns:dc="http://purl.org/dc/elements/1.1/"
   xmlns:cc="http://creativecommons.org/ns#"
   xmlns:rdf="http://www.w3.org/1999/02/22-rdf-syntax-ns#"
   xmlns:svg="http://www.w3.org/2000/svg"
   xmlns="http://www.w3.org/2000/svg"
   xmlns:sodipodi="http://sodipodi.sourceforge.net/DTD/sodipodi-0.dtd"
   xmlns:inkscape="http://www.inkscape.org/namespaces/inkscape"
   width="520.45508"
   height="105.10923"
   id="svg2"
   version="1.1"
   inkscape:version="0.91 r13725"
   sodipodi:docname="knoplablogo.svg">
  <defs
     id="defs4" />
  <sodipodi:namedview
     id="base"
     pagecolor="#ffffff"
     bordercolor="#666666"
     borderopacity="1.0"
     inkscape:pageopacity="0.0"
     inkscape:pageshadow="2"
     inkscape:zoom="2.8"
     inkscape:cx="283.29972"
     inkscape:cy="90.920395"
     inkscape:document-units="px"
     inkscape:current-layer="layer1"
     showgrid="false"
     inkscape:window-width="3200"
     inkscape:window-height="1714"
     inkscape:window-x="0"
     inkscape:window-y="0"
     inkscape:window-maximized="1"
     fit-margin-top="0"
     fit-margin-left="0"
     fit-margin-right="0"
     fit-margin-bottom="0" />
  <metadata
     id="metadata7">
    <rdf:RDF>
      <cc:Work
         rdf:about="">
        <dc:format>image/svg+xml</dc:format>
        <dc:type
           rdf:resource="http://purl.org/dc/dcmitype/StillImage" />
        <dc:title></dc:title>
      </cc:Work>
    </rdf:RDF>
  </metadata>
  <g
     inkscape:label="Layer 1"
     inkscape:groupmode="layer"
     id="layer1"
     transform="translate(-120.3248,-110.8484)">
    <path
       inkscape:connector-curvature="0"
       id="path4137"
       style="font-style:normal;font-variant:normal;font-weight:bold;font-stretch:normal;font-size:108.60933685px;line-height:125%;font-family:'DejaVu Sans';-inkscape-font-specification:'DejaVu Sans Bold';letter-spacing:0px;word-spacing:0px;fill:#000000;fill-opacity:1;stroke:#ffffff;stroke-opacity:1;stroke-width:2;stroke-miterlimit:4;stroke-dasharray:none"
       d="m 120.3248,114.18941 20.41728,0 0,28.90239 29.4327,-28.90239 23.70526,0 -38.12993,37.49356 42.0543,41.68307 -25.56138,0 -31.50095,-31.18276 0,31.18276 -20.41728,0 0,-79.17663 z" />
    <path
       inkscape:connector-curvature="0"
       id="path4139"
       style="font-style:normal;font-variant:normal;font-weight:bold;font-stretch:normal;font-size:108.60933685px;line-height:125%;font-family:'DejaVu Sans';-inkscape-font-specification:'DejaVu Sans Bold';letter-spacing:0px;word-spacing:0px;fill:#000000;fill-opacity:1;stroke:#ffffff;stroke-opacity:1;stroke-width:2;stroke-miterlimit:4;stroke-dasharray:none"
       d="m 263.40487,157.19829 0,36.16775 -19.09149,0 0,-5.88654 0,-21.79611 q 0,-7.68963 -0.37122,-10.60638 -0.31819,-2.91676 -1.1667,-4.29558 -1.11367,-1.85612 -3.02282,-2.86373 -1.90915,-1.06064 -4.34862,-1.06064 -5.93957,0 -9.33361,4.61378 -3.39404,4.56074 -3.39404,12.67462 l 0,29.22058 -18.98542,0 0,-59.39573 18.98542,0 0,8.69723 q 4.29558,-5.19712 9.12148,-7.63659 4.82591,-2.4925 10.65942,-2.4925 10.28819,0 15.59138,6.3108 5.35622,6.31079 5.35622,18.34904 z" />
    <path
       inkscape:connector-curvature="0"
       id="path4141"
       style="font-style:normal;font-variant:normal;font-weight:bold;font-stretch:normal;font-size:108.60933685px;line-height:125%;font-family:'DejaVu Sans';-inkscape-font-specification:'DejaVu Sans Bold';letter-spacing:0px;word-spacing:0px;fill:#000000;fill-opacity:1;stroke:#ffffff;stroke-opacity:1;stroke-width:2;stroke-miterlimit:4;stroke-dasharray:none"
       d="m 375.62037,184.77487 0,31.18276 -18.98542,0 0,-81.98732 18.98542,0 0,8.69723 q 3.92436,-5.19712 8.69723,-7.63659 4.77287,-2.4925 10.9776,-2.4925 10.97761,0 18.03085,8.75026 7.05324,8.69724 7.05324,22.4325 0,13.73526 -7.05324,22.48553 -7.05324,8.69723 -18.03085,8.69723 -6.20473,0 -10.9776,-2.43947 -4.77287,-2.4925 -8.69723,-7.68963 z m 12.62159,-38.44812 q -6.09867,0 -9.38665,4.50771 -3.23494,4.45468 -3.23494,12.88675 0,8.43207 3.23494,12.93978 3.28798,4.45468 9.38665,4.45468 6.09867,0 9.28058,-4.45468 3.23495,-4.45468 3.23495,-12.93978 0,-8.4851 -3.23495,-12.93978 -3.18191,-4.45468 -9.28058,-4.45468 z" />
    <path
       inkscape:connector-curvature="0"
       id="path4143"
       style="font-style:normal;font-variant:normal;font-weight:bold;font-stretch:normal;font-size:108.60933685px;line-height:125%;font-family:'DejaVu Sans';-inkscape-font-specification:'DejaVu Sans Bold';letter-spacing:0px;word-spacing:0px;fill:#000000;fill-opacity:1;stroke:#ffffff;stroke-opacity:1;stroke-width:2;stroke-miterlimit:4;stroke-dasharray:none"
       d="m 435.33429,114.18941 20.41728,0 0,63.74435 35.84956,0 0,15.43228 -56.26684,0 0,-79.17663 z" />
    <path
       inkscape:connector-curvature="0"
       id="path4145"
       style="font-style:normal;font-variant:normal;font-weight:bold;font-stretch:normal;font-size:108.60933685px;line-height:125%;font-family:'DejaVu Sans';-inkscape-font-specification:'DejaVu Sans Bold';letter-spacing:0px;word-spacing:0px;fill:#000000;fill-opacity:1;stroke:#ffffff;stroke-opacity:1;stroke-width:2;stroke-miterlimit:4;stroke-dasharray:none"
       d="m 530.26139,166.63796 q -5.93958,0 -8.9624,2.01522 -2.96978,2.01521 -2.96978,5.93957 0,3.60617 2.38643,5.67441 2.43947,2.01522 6.73505,2.01522 5.35623,0 9.01543,-3.8183 3.6592,-3.87133 3.6592,-9.65181 l 0,-2.17431 -9.86393,0 z m 29.00845,-7.1593 0,33.88738 -19.14452,0 0,-8.80329 q -3.8183,5.40925 -8.59117,7.90175 -4.77287,2.43947 -11.61399,2.43947 -9.22755,0 -15.00802,-5.35622 -5.72745,-5.40926 -5.72745,-14.00043 0,-10.44728 7.15931,-15.32622 7.21234,-4.87893 22.59159,-4.87893 l 11.18973,0 0,-1.48489 q 0,-4.50772 -3.55314,-6.57596 -3.55314,-2.12128 -11.08367,-2.12128 -6.09866,0 -11.34882,1.21974 -5.25016,1.21973 -9.75787,3.6592 l 0,-14.47771 q 6.09867,-1.48489 12.25037,-2.22734 6.1517,-0.79548 12.3034,-0.79548 16.06866,0 23.17494,6.36383 7.15931,6.3108 7.15931,20.57638 z" />
    <path
       inkscape:connector-curvature="0"
       id="path4147"
       style="font-style:normal;font-variant:normal;font-weight:bold;font-stretch:normal;font-size:108.60933685px;line-height:125%;font-family:'DejaVu Sans';-inkscape-font-specification:'DejaVu Sans Bold';letter-spacing:0px;word-spacing:0px;fill:#000000;fill-opacity:1;stroke:#ffffff;stroke-opacity:1;stroke-width:2;stroke-miterlimit:4;stroke-dasharray:none"
       d="m 608.64256,181.11567 q 6.09867,0 9.28059,-4.45468 3.23494,-4.45468 3.23494,-12.93978 0,-8.4851 -3.23494,-12.93978 -3.18192,-4.45468 -9.28059,-4.45468 -6.09866,0 -9.38664,4.50771 -3.23495,4.45468 -3.23495,12.88675 0,8.43207 3.23495,12.93978 3.28798,4.45468 9.38664,4.45468 z m -12.62159,-38.44813 q 3.92436,-5.19712 8.69723,-7.63659 4.77287,-2.4925 10.97761,-2.4925 10.9776,0 18.03084,8.75026 7.05325,8.69724 7.05325,22.4325 0,13.73526 -7.05325,22.48553 -7.05324,8.69723 -18.03084,8.69723 -6.20474,0 -10.97761,-2.43947 -4.77287,-2.4925 -8.69723,-7.68963 l 0,8.59117 -18.98542,0 0,-82.51764 18.98542,0 0,31.81914 z" />
    <path
       style="color:#000000;font-style:normal;font-variant:normal;font-weight:normal;font-stretch:normal;font-size:medium;line-height:normal;font-family:Sans;-inkscape-font-specification:Sans;text-indent:0;text-align:start;text-decoration:none;text-decoration-line:none;letter-spacing:normal;word-spacing:normal;text-transform:none;direction:ltr;block-progression:tb;writing-mode:lr-tb;baseline-shift:baseline;text-anchor:start;display:inline;overflow:visible;visibility:visible;fill:#000000;fill-opacity:1;stroke:#ffffff;stroke-opacity:1;stroke-width:2;stroke-miterlimit:4;stroke-dasharray:none"
       d="m 325.70246,124.56722 c -5.40612,0 -9.83662,2.52557 -13.43475,5.93957 -1.75911,-0.31542 -3.51021,-0.70709 -5.3739,-0.70709 -17.83651,0 -32.2434,14.9875 -32.2434,33.0919 0,18.10442 14.40689,33.09192 32.2434,33.09192 17.8365,0 32.2434,-15.01656 32.2434,-33.09192 0,-1.47939 -0.38285,-2.92684 -0.56568,-4.38396 4.22291,-3.56877 7.49518,-8.3507 7.49518,-14.28326 0,-10.96045 -9.3886,-19.65716 -20.36425,-19.65716 z m 0,12.72765 c 4.30115,0 7.63659,3.23529 7.63659,6.92951 0,2.62866 -1.56715,4.88077 -4.10114,6.08099 l -4.80822,2.2627 1.27277,5.09106 c 0.40004,1.59828 0.56567,3.40286 0.56567,5.23247 0,11.43762 -8.67906,20.36426 -19.37432,20.36426 -10.69526,0 -19.37432,-8.9557 -19.37432,-20.36426 0,-11.40855 8.67906,-20.36425 19.37432,-20.36425 1.87564,0 3.60632,0.31135 5.3739,0.84852 l 4.6668,1.41418 2.54553,-4.10113 c 1.34355,-2.06707 3.44523,-3.39405 6.22242,-3.39405 z"
       id="path2989"
       inkscape:connector-curvature="0" />
  </g>
</svg>
